<svg width="111" height="32" fill="none" xmlns="http://www.w3.org/2000/svg"><path d="M2.781 25a.584.584 0 0 1-.432-.162.584.584 0 0 1-.162-.432V11.554c0-.18.054-.324.162-.432a.584.584 0 0 1 .432-.162h.459c.18 0 .324.054.432.162a.584.584 0 0 1 .162.432v12.852c0 .18-.054.324-.162.432A.584.584 0 0 1 3.24 25h-.459ZM2.484 8.071a.584.584 0 0 1-.432-.162.584.584 0 0 1-.162-.432V6.451c0-.18.054-.324.162-.432a.54.54 0 0 1 .432-.189H3.51a.54.54 0 0 1 .432.189.54.54 0 0 1 .189.432v1.026a.54.54 0 0 1-.189.432.584.584 0 0 1-.432.162H2.484Zm11.8 17.199c-1.295 0-2.384-.27-3.266-.81a5.405 5.405 0 0 1-1.998-2.214c-.45-.936-.693-1.98-.73-3.132-.017-.27-.026-.648-.026-1.134 0-.486.009-.864.027-1.134.036-1.17.279-2.214.729-3.132a5.405 5.405 0 0 1 1.998-2.214c.882-.54 1.97-.81 3.267-.81 1.296 0 2.376.27 3.24.81a5.169 5.169 0 0 1 1.998 2.214c.468.918.72 1.962.756 3.132.018.27.027.648.027 1.134 0 .486-.01.864-.027 1.134-.036 1.152-.288 2.196-.756 3.132a5.169 5.169 0 0 1-1.998 2.214c-.864.54-1.944.81-3.24.81Zm0-1.566c1.26 0 2.287-.405 3.079-1.215.792-.81 1.215-1.98 1.269-3.51.018-.27.027-.603.027-.999s-.01-.729-.027-.999c-.054-1.548-.477-2.718-1.27-3.51-.791-.81-1.817-1.215-3.077-1.215s-2.286.405-3.078 1.215c-.792.792-1.215 1.962-1.27 3.51-.017.27-.026.603-.026.999s.009.729.027.999c.054 1.53.477 2.7 1.269 3.51.792.81 1.818 1.215 3.078 1.215ZM25.04 25a.463.463 0 0 1-.34-.14.463.463 0 0 1-.14-.34V11.5c0-.147.047-.267.14-.36a.463.463 0 0 1 .34-.14h8.68c.147 0 .267.047.36.14.093.093.14.213.14.36v1.4a.487.487 0 0 1-.14.36.534.534 0 0 1-.36.12H27.3v3.8h6.02c.147 0 .267.047.36.14.093.093.14.213.14.36v1.4a.463.463 0 0 1-.14.34.487.487 0 0 1-.36.14H27.3v4.96a.463.463 0 0 1-.14.34.487.487 0 0 1-.36.14h-1.76Zm12.212 0a.463.463 0 0 1-.34-.14.463.463 0 0 1-.14-.34V11.48c0-.133.046-.247.14-.34a.463.463 0 0 1 .34-.14h1.88c.146 0 .26.047.34.14.093.093.14.207.14.34v13.04a.463.463 0 0 1-.14.34.423.423 0 0 1-.34.14h-1.88Zm6.176 0a.463.463 0 0 1-.34-.14.463.463 0 0 1-.14-.34V11.5c0-.147.047-.267.14-.36a.463.463 0 0 1 .34-.14h1.54c.187 0 .32.047.4.14.094.08.154.14.18.18l5.76 8.96V11.5c0-.147.04-.267.12-.36a.487.487 0 0 1 .36-.14h1.68c.147 0 .267.047.36.14.094.093.14.213.14.36v13a.487.487 0 0 1-.14.36.463.463 0 0 1-.34.14h-1.56c-.186 0-.32-.047-.4-.14a1.096 1.096 0 0 0-.18-.18l-5.74-8.76v8.6a.463.463 0 0 1-.14.34.488.488 0 0 1-.36.14h-1.68Zm13 0a.453.453 0 0 1-.3-.12.407.407 0 0 1-.12-.3.49.49 0 0 1 .04-.18l4.82-12.9a.718.718 0 0 1 .22-.34c.12-.107.28-.16.48-.16h2.18c.2 0 .354.053.46.16a.878.878 0 0 1 .24.34l4.82 12.9a.93.93 0 0 1 .02.18c0 .12-.04.22-.12.3a.384.384 0 0 1-.28.12h-1.74c-.186 0-.326-.04-.42-.12a.808.808 0 0 1-.16-.26l-.94-2.44h-5.94l-.94 2.44a.706.706 0 0 1-.18.26c-.08.08-.212.12-.4.12h-1.74Zm3.96-5.12h4.54l-2.28-6.18-2.26 6.18ZM71.837 25a.463.463 0 0 1-.34-.14.463.463 0 0 1-.14-.34V11.5c0-.147.047-.267.14-.36a.463.463 0 0 1 .34-.14h1.54c.187 0 .32.047.4.14.093.08.153.14.18.18l5.76 8.96V11.5c0-.147.04-.267.12-.36a.487.487 0 0 1 .36-.14h1.68c.147 0 .267.047.36.14.093.093.14.213.14.36v13a.487.487 0 0 1-.14.36.463.463 0 0 1-.34.14h-1.56c-.187 0-.32-.047-.4-.14a1.096 1.096 0 0 0-.18-.18l-5.74-8.76v8.6a.463.463 0 0 1-.14.34.487.487 0 0 1-.36.14h-1.68Zm19.26.2c-1.24 0-2.293-.213-3.16-.64-.853-.44-1.506-1.06-1.96-1.86-.453-.813-.706-1.787-.76-2.92a77.714 77.714 0 0 1 0-3.56c.054-1.12.307-2.087.76-2.9a4.604 4.604 0 0 1 1.98-1.86c.867-.44 1.914-.66 3.14-.66.907 0 1.72.12 2.44.36s1.334.573 1.84 1c.507.413.9.9 1.18 1.46.28.56.427 1.167.44 1.82a.327.327 0 0 1-.12.3c-.08.08-.18.12-.3.12h-1.9a.605.605 0 0 1-.36-.1c-.093-.08-.16-.207-.2-.38-.213-.88-.58-1.48-1.1-1.8-.52-.32-1.166-.48-1.94-.48-.893 0-1.606.253-2.14.76-.533.493-.82 1.313-.86 2.46a47.048 47.048 0 0 0 0 3.36c.04 1.147.327 1.973.86 2.48.534.493 1.247.74 2.14.74.774 0 1.42-.16 1.94-.48.52-.333.887-.933 1.1-1.8.04-.187.107-.313.2-.38a.605.605 0 0 1 .36-.1h1.9c.12 0 .22.04.3.12.094.08.134.18.12.3a4.209 4.209 0 0 1-.44 1.82 4.635 4.635 0 0 1-1.18 1.48c-.506.413-1.12.74-1.84.98s-1.533.36-2.44.36Zm8.953-.2a.463.463 0 0 1-.34-.14.463.463 0 0 1-.14-.34V11.5c0-.147.046-.267.14-.36a.463.463 0 0 1 .34-.14h8.8a.49.49 0 0 1 .36.14c.093.093.14.213.14.36v1.32a.464.464 0 0 1-.14.34.49.49 0 0 1-.36.14h-6.58v3.54h6.14a.49.49 0 0 1 .36.14c.093.08.14.193.14.34v1.24a.489.489 0 0 1-.14.36.536.536 0 0 1-.36.12h-6.14v3.66h6.74a.49.49 0 0 1 .36.14c.093.093.14.213.14.36v1.32a.464.464 0 0 1-.14.34.49.49 0 0 1-.36.14h-8.96Z" fill="#FFAB2B"/></svg>
